HIERARCHY
ROOT Hips
{
  OFFSET -32.5998 29.0326 120.673
  CHANNELS 6 Xposition Yposition Zposition Zrotation Xrotation Yrotation
  JOINT LeftUpLeg
  {
    OFFSET 8.64259 1.95398 -2.38835
    CHANNELS 3 Zrotation Xrotation Yrotation
    JOINT LeftLeg
    {
      OFFSET 43.7702 0 0
      CHANNELS 3 Zrotation Xrotation Yrotation
      JOINT LeftFoot
      {
        OFFSET 40.6238 0 0
        CHANNELS 3 Zrotation Xrotation Yrotation
        JOINT LeftToeBase
        {
          OFFSET 12.7242 0 0
          CHANNELS 3 Zrotation Xrotation Yrotation
          End Site
          {
            OFFSET 0 0 0
          }
        }
      }
    }
  }
  JOINT RightUpLeg
  {
    OFFSET -8.2249 1.95398 -2.59336
    CHANNELS 3 Zrotation Xrotation Yrotation
    JOINT RightLeg
    {
      OFFSET 43.5653 0 0
      CHANNELS 3 Zrotation Xrotation Yrotation
      JOINT RightFoot
      {
        OFFSET 40.6238 0 0
        CHANNELS 3 Zrotation Xrotation Yrotation
        JOINT RightToeBase
        {
          OFFSET 12.7242 0 0
          CHANNELS 3 Zrotation Xrotation Yrotation
          End Site
          {
            OFFSET 0 0 0
          }
        }
      }
    }
  }
  JOINT Spine
  {
    OFFSET 0.165834 0.87714 6.61349
    CHANNELS 3 Zrotation Xrotation Yrotation
    JOINT Spine1
    {
      OFFSET 7.38963 1.71661e-005 0
      CHANNELS 3 Zrotation Xrotation Yrotation
      JOINT Spine2
      {
        OFFSET 11.9445 1.14441e-005 0
        CHANNELS 3 Zrotation Xrotation Yrotation
        JOINT Spine3
        {
          OFFSET 14.7254 4.19617e-005 0
          CHANNELS 3 Zrotation Xrotation Yrotation
          JOINT Spine4
          {
            OFFSET 10.9679 0 0
            CHANNELS 3 Zrotation Xrotation Yrotation
            JOINT RightShoulder
            {
              OFFSET 2.46616 -1.6653 3.69651
              CHANNELS 3 Zrotation Xrotation Yrotation
              JOINT RightArm
              {
                OFFSET 13.0012 0 0
                CHANNELS 3 Zrotation Xrotation Yrotation
                JOINT RightForeArm
                {
                  OFFSET 28.7848 1.62311e-005 0
                  CHANNELS 3 Zrotation Xrotation Yrotation
                  JOINT RightHand
                  {
                    OFFSET 26.5688 1.62095e-005 0
                    CHANNELS 3 Zrotation Xrotation Yrotation
                    End Site
                    {
                      OFFSET 0 0 0
                    }
                  }
                }
              }
            }
            JOINT LeftShoulder
            {
              OFFSET 2.38034 -1.29275 -3.7523
              CHANNELS 3 Zrotation Xrotation Yrotation
              JOINT LeftArm
              {
                OFFSET 16.3182 6.07031e-005 0
                CHANNELS 3 Zrotation Xrotation Yrotation
                JOINT LeftForeArm
                {
                  OFFSET 27.0901 0 0
                  CHANNELS 3 Zrotation Xrotation Yrotation
                  JOINT LeftHand
                  {
                    OFFSET 24.5451 1.51738e-005 0
                    CHANNELS 3 Zrotation Xrotation Yrotation
                    End Site
                    {
                      OFFSET 0 0 0
                    }
                  }
                }
              }
            }
            JOINT Neck
            {
              OFFSET 5.0226 -0.0266342 0
              CHANNELS 3 Zrotation Xrotation Yrotation
              JOINT Head
              {
                OFFSET 6.69364 2.86102e-005 0
                CHANNELS 3 Zrotation Xrotation Yrotation
                End Site
                {
                  OFFSET 0 0 0
                }
              }
            }
          }
        }
      }
    }
  }
}
MOTION
Frames:	9
Frame Time:	0.0416667
36.3775 102.224 -337.548 -176.056 -83.8006 -177.333 -172.349 -7.70795 91.5039 -6.77905 6.45271 -0.222412 67.7293 5.82798 1.66533 24.9997 -9.86227 17.241 172.867 -5.04146 90.6743 -13.5097 -6.54418 0.371345 69.6547 -5.38775 -0.594531 25.9523 0.272766 3.69399 0.19585 7.53304 -89.9469 11.8077 0.414512 0.0619345 0.136856 0.416832 0.0436308 -22.3988 0.376727 0.183648 -2.3861 0.376739 0.183664 92.8096 -28.862 -101.497 44.4969 -22.2441 -9.35473 -12.8136 -16.9791 -22.9718 -6.34714 -0.104954 -3.54223 -87.802 -48.5896 81.7665 -22.7206 30.5326 -15.3634 5.567 -5.13712 -9.68692 -2.38975 -0.0906711 -3.43726 2.87126 -3.42425 -2.35168 -10.5558 -2.93888 -0.957228 
35.3168 101.92 -336.763 -171.03 -82.9411 -173.132 -171.992 -8.52508 91.5307 -7.58959 6.00173 -0.492432 68.5737 7.73008 4.18942 24.6454 -7.05285 11.289 171.964 -5.30928 89.8155 -15.7225 -7.55116 0.70592 71.6049 -5.95989 -0.264794 25.2479 0.518574 3.86714 0.244847 7.60857 -89.872 11.6566 0.547096 0.198226 -0.0142464 0.555295 0.173944 -22.55 0.462224 0.353487 -2.53736 0.462232 0.353491 91.0502 -28.7749 -105.113 43.9594 -21.3914 -8.17392 -14.8062 -21.6254 -24.7333 -12.0767 -0.296241 -2.37213 -87.804 -50.176 82.0499 -22.7394 26.9932 -12.4633 6.2992 -5.95732 -11.187 -5.84474 0.00724329 -7.60419 1.55711 -3.01713 -1.20355 -9.9345 -2.74903 -0.958806 
34.0241 101.364 -335.972 -175.25 -82.6413 -177.739 -171.022 -6.98574 93.5139 -11.665 6.83098 -0.643464 69.3296 9.13267 3.94264 26.6486 -6.47837 12.4247 171.896 -5.06538 90.1245 -18.4095 -6.93903 0.861623 73.5602 -6.44331 -0.510965 24.165 1.05215 3.58855 0.302449 7.73641 -89.8101 11.4001 0.690492 0.307919 -0.270647 0.703376 0.277227 -22.8066 0.566018 0.501204 -2.79392 0.56603 0.501216 91.2693 -28.3896 -104.806 44.0775 -21.7999 -8.34259 -14.5177 -20.8338 -24.6909 -11.5248 -0.259244 -2.66216 -87.3407 -49.6251 82.6496 -23.039 23.0978 -10.6758 7.45885 -5.71306 -12.587 -3.00755 -0.0884671 -5.40539 2.34885 -2.80699 -0.492318 -10.3013 -2.64386 -0.933233 
33.1206 100.997 -335.371 177.766 -82.8374 175.325 -171.587 1.01642 90.8431 -25.4651 5.03154 0.104326 70.8328 7.94226 -0.298785 27.2107 -6.93156 14.0507 171.937 -5.11249 90.7773 -18.919 -5.87882 1.19133 74.5357 -6.93132 -0.725286 24.5056 0.625855 4.58196 0.333005 7.7916 -89.8838 11.2903 0.71689 0.160275 -0.380436 0.723238 0.128564 -22.9168 0.635568 0.368329 -2.90419 0.635571 0.368325 90.8022 -28.3314 -105.78 43.1051 -21.6096 -7.55005 -14.018 -19.9942 -24.1754 -10.7188 -0.230662 -2.79774 -87.274 -49.8543 82.79 -23.0007 20.8491 -8.74657 7.84897 -6.03321 -13.5191 -3.15695 -0.0838956 -5.37608 2.21485 -2.448 0.529902 -9.93349 -2.44503 -1.05074 
32.5519 100.99 -334.565 164.999 -83.1263 161.884 -173.595 8.53845 91.5099 -38.278 5.54693 1.03559 69.8917 5.75347 -1.64048 25.2495 -6.56248 10.9709 171.988 -6.25503 90.8493 -16.7401 -3.84514 1.1338 74.7106 -7.16676 -0.460234 24.6853 0.594239 4.42817 0.417986 7.8075 -89.8786 11.2585 0.88839 0.153781 -0.412152 0.894297 0.114522 -22.9493 0.801097 0.413688 -2.93665 0.801092 0.413676 91.0485 -27.4459 -105.612 43.6833 -20.855 -7.18446 -11.7903 -14.615 -22.543 -11.1854 -0.0956222 -4.35355 -87.1291 -49.4948 82.9476 -23.4356 19.3793 -7.021 8.0237 -6.58997 -13.8028 -2.5758 -0.085498 -5.2336 1.7806 -2.48627 0.871273 -9.63475 -2.51465 -1.49197 
32.7753 101.183 -333.244 158.545 -83.555 153.798 -175.164 13.3634 87.5505 -38.1113 5.8268 0.334712 70.3763 4.94971 -5.55648 25.0225 -8.27408 14.1609 171.14 -6.64677 89.0377 -16.0562 -4.27878 0.935132 74.6298 -7.30926 -0.598671 25.892 0.370435 3.43046 0.678522 7.86191 -89.8077 11.1492 1.43988 0.242242 -0.521003 1.44915 0.178616 -23.0615 1.3005 0.663855 -3.04881 1.3005 0.663853 90.8448 -27.2019 -106.129 41.8587 -21.7496 -8.90302 -11.9384 -14.9442 -22.8627 -10.9612 -0.175626 -3.45958 -87.0134 -49.3283 83.0949 -24.5505 17.3233 -5.17503 8.61658 -5.79962 -15.0009 -2.58285 -0.0884261 -4.8989 1.95312 -3.06054 1.84183 -9.61181 -3.20352 -2.10571 
33.2628 100.907 -330.981 146.394 -83.6726 140.511 -176.998 16.3318 83.3686 -28.2545 8.64388 -0.647276 66.915 3.74241 -2.97345 23.4126 -7.87065 11.6935 170.603 -7.09463 87.8954 -16.2439 -3.02778 0.649142 75.7855 -7.8045 -0.409126 26.7492 -0.00295652 3.46264 0.812026 7.91057 -89.8021 11.0519 1.70821 0.229187 -0.617941 1.71664 0.153753 -23.1608 1.56034 0.732102 -3.14815 1.56034 0.732094 90.5527 -27.0929 -106.777 39.1054 -22.3943 -12.5048 -12.4273 -13.9001 -24.124 -9.74195 -0.0853481 -4.37114 -86.7676 -49.5354 83.5008 -26.2552 15.5087 -2.35255 9.39602 -4.55286 -16.133 -3.05025 -0.0918796 -4.75428 2.67625 -3.06633 3.29593 -8.97243 -3.45993 -2.16872 
33.7714 100.263 -327.656 139.549 -83.6812 133.428 -178.884 17.3335 80.6013 -15.2736 9.39977 -1.08492 65.8488 4.24381 -0.345041 17.6775 -8.02506 5.99999 170.091 -8.72722 87.3789 -16.3812 -2.42387 0.61418 77.289 -8.82613 -0.708309 28.715 -1.04734 4.44324 0.996742 7.96041 -89.9298 10.9551 2.01693 -0.0518604 -0.714268 2.01268 -0.140622 -23.2613 1.93923 0.556936 -3.24867 1.93923 0.556938 90.7457 -26.5621 -106.589 36.1546 -22.2435 -16.2165 -13.1646 -13.1225 -25.9403 -9.94219 -0.0984334 -4.2135 -87.3884 -50.8235 82.7831 -27.0419 17.4504 0.190919 8.4347 -5.91802 -14.9276 -3.13881 -0.0953867 -4.19922 2.75657 -3.04837 4.72842 -7.4396 -3.69264 -2.61656 
34.0092 99.2421 -322.818 147.157 -84.2909 141.447 -179.184 17.6581 79.929 -8.14905 6.63594 -1.99031 64.7585 3.78931 -1.65982 16.0833 -9.25686 6.68412 170.577 -12.5182 87.8909 -15.4093 -1.6031 -0.32865 79.002 -10.0266 -0.177936 30.1419 -1.45546 3.6876 1.1451 8.00743 -89.9899 10.8628 2.28468 -0.194125 -0.806224 2.27391 -0.29455 -23.357 2.23733 0.501843 -3.34437 2.23733 0.50184 90.026 -27.1153 -107.859 33.5582 -22.1144 -19.4017 -14.8381 -15.1947 -27.4306 -7.43896 -0.04664 -4.7695 -87.2061 -51.5489 83.1726 -28.8748 18.0561 2.92656 8.35191 -5.30098 -12.993 -3.19088 -0.0983779 -3.27201 2.95443 -2.76981 4.4364 -6.9263 -3.3857 -2.6357 
